{
  "accessors": [
    {
      "bufferView": 2,
      "componentType": 5126,
      "count": 192,
      "max": [
        1.0,
        1.4901161193847656e-08,
        2.0
      ],
      "min": [
        0.0,
        -0.2800000309944153,
        0.0
      ],
      "type": "VEC3"
    },
    {
      "bufferView": 2,
      "byteOffset": 2304,
      "componentType": 5126,
      "count": 192,
      "max": [
        1.0,
        1.0,
        1.0
      ],
      "min": [
        -1.0,
        -1.0,
        -1.0
      ],
      "type": "VEC3"
    },
    {
      "bufferView": 3,
      "componentType": 5126,
      "count": 192,
      "max": [
        1.0,
        1.0,
        1.0,
        1.0
      ],
      "min": [
        -1.0,
        -1.0,
        -1.0,
        1.0
      ],
      "type": "VEC4"
    },
    {
      "bufferView": 1,
      "componentType": 5126,
      "count": 192,
      "max": [
        0.9982876777648926,
        0.9444444179534912
      ],
      "min": [
        0.015981759876012802,
        0.0555555522441864
      ],
      "type": "VEC2"
    },
    {
      "bufferView": 1,
      "byteOffset": 1536,
      "componentType": 5126,
      "count": 192,
      "max": [
        0.9982876777648926,
        0.9444444179534912
      ],
      "min": [
        0.015981759876012802,
        0.0555555522441864
      ],
      "type": "VEC2"
    },
    {
      "bufferView": 1,
      "byteOffset": 3072,
      "componentType": 5126,
      "count": 192,
      "max": [
        0.9982876777648926,
        0.9444444179534912
      ],
      "min": [
        0.015981759876012802,
        0.0555555522441864
      ],
      "type": "VEC2"
    },
    {
      "bufferView": 1,
      "byteOffset": 4608,
      "componentType": 5126,
      "count": 192,
      "max": [
        0.9982876777648926,
        0.9444444179534912
      ],
      "min": [
        0.015981759876012802,
        0.0555555522441864
      ],
      "type": "VEC2"
    },
    {
      "bufferView": 1,
      "byteOffset": 6144,
      "componentType": 5126,
      "count": 192,
      "max": [
        0.9982876777648926,
        0.9444444179534912
      ],
      "min": [
        0.015981759876012802,
        0.0555555522441864
      ],
      "type": "VEC2"
    },
    {
      "bufferView": 1,
      "byteOffset": 7680,
      "componentType": 5126,
      "count": 192,
      "max": [
        0.9982876777648926,
        0.9444444179534912
      ],
      "min": [
        0.015981759876012802,
        0.0555555522441864
      ],
      "type": "VEC2"
    },
    {
      "bufferView": 1,
      "byteOffset": 9216,
      "componentType": 5126,
      "count": 192,
      "max": [
        0.9982876777648926,
        0.9444444179534912
      ],
      "min": [
        0.015981759876012802,
        0.0555555522441864
      ],
      "type": "VEC2"
    },
    {
      "bufferView": 1,
      "byteOffset": 10752,
      "componentType": 5126,
      "count": 192,
      "max": [
        0.9982876777648926,
        0.9444444179534912
      ],
      "min": [
        0.015981759876012802,
        0.0555555522441864
      ],
      "type": "VEC2"
    },
    {
      "bufferView": 1,
      "byteOffset": 12288,
      "componentType": 5126,
      "count": 192,
      "max": [
        0.9982876777648926,
        0.9444444179534912
      ],
      "min": [
        0.015981759876012802,
        0.0555555522441864
      ],
      "type": "VEC2"
    },
    {
      "bufferView": 1,
      "byteOffset": 13824,
      "componentType": 5126,
      "count": 192,
      "max": [
        0.9982876777648926,
        0.9444444179534912
      ],
      "min": [
        0.015981759876012802,
        0.0555555522441864
      ],
      "type": "VEC2"
    },
    {
      "bufferView": 0,
      "componentType": 5125,
      "count": 288,
      "type": "SCALAR"
    }
  ],
  "asset": {
    "extras": {
      "author": "Thunder (https://sketchfab.com/thunderpwn)",
      "license": "CC-BY-SA-4.0 (http://creativecommons.org/licenses/by-sa/4.0/)",
      "source": "https://sketchfab.com/3d-models/old-shelves-3134ba1e43614084a06f754a61669262",
      "title": "Old Shelves"
    },
    "generator": "Sketchfab-12.66.0",
    "version": "2.0"
  },
  "bufferViews": [
    {
      "buffer": 0,
      "byteLength": 1152,
      "name": "floatBufferViews",
      "target": 34963
    },
    {
      "buffer": 0,
      "byteLength": 15360,
      "byteOffset": 1152,
      "byteStride": 8,
      "name": "floatBufferViews",
      "target": 34962
    },
    {
      "buffer": 0,
      "byteLength": 4608,
      "byteOffset": 16512,
      "byteStride": 12,
      "name": "floatBufferViews",
      "target": 34962
    },
    {
      "buffer": 0,
      "byteLength": 3072,
      "byteOffset": 21120,
      "byteStride": 16,
      "name": "floatBufferViews",
      "target": 34962
    }
  ],
  "buffers": [
    {
      "byteLength": 24192,
      "uri": "scene.bin"
    }
  ],
  "images": [
    {
      "uri": "textures/Shelves_material_baseColor.png"
    },
    {
      "uri": "textures/Shelves_material_metallicRoughness.png"
    },
    {
      "uri": "textures/Shelves_material_normal.png"
    }
  ],
  "materials": [
    {
      "doubleSided": true,
      "name": "Shelves_material",
      "normalTexture": {
        "index": 2
      },
      "pbrMetallicRoughness": {
        "baseColorTexture": {
          "index": 0
        },
        "metallicRoughnessTexture": {
          "index": 1
        }
      }
    }
  ],
  "meshes": [
    {
      "name": "Shelves1_Shelves_material_0",
      "primitives": [
        {
          "attributes": {
            "NORMAL": 1,
            "POSITION": 0,
            "TANGENT": 2,
            "TEXCOORD_0": 3,
            "TEXCOORD_1": 4,
            "TEXCOORD_2": 5,
            "TEXCOORD_3": 6,
            "TEXCOORD_4": 7,
            "TEXCOORD_5": 8,
            "TEXCOORD_6": 9,
            "TEXCOORD_7": 10,
            "TEXCOORD_8": 11,
            "TEXCOORD_9": 12
          },
          "indices": 13,
          "material": 0,
          "mode": 4
        }
      ]
    }
  ],
  "nodes": [
    {
      "children": [
        1
      ],
      "matrix": [
        1.0,
        0.0,
        0.0,
        0.0,
        0.0,
        2.220446049250313e-16,
        -1.0,
        0.0,
        0.0,
        1.0,
        2.220446049250313e-16,
        0.0,
        0.0,
        0.0,
        0.0,
        1.0
      ],
      "name": "Sketchfab_model"
    },
    {
      "children": [
        2
      ],
      "matrix": [
        1.0,
        0.0,
        0.0,
        0.0,
        0.0,
        0.0,
        1.0,
        0.0,
        0.0,
        -1.0,
        0.0,
        0.0,
        0.0,
        0.0,
        0.0,
        1.0
      ],
      "name": "oldshelves.fbx"
    },
    {
      "children": [
        3
      ],
      "name": "RootNode"
    },
    {
      "children": [
        4
      ],
      "matrix": [
        104.64344024658203,
        0.0,
        0.0,
        0.0,
        0.0,
        -1.3934116881604205e-05,
        -104.64344024658111,
        0.0,
        0.0,
        104.64344024658111,
        -1.3934116881604205e-05,
        0.0,
        0.0,
        0.0,
        0.0,
        1.0
      ],
      "name": "Shelves1"
    },
    {
      "mesh": 0,
      "name": "Shelves1_Shelves_material_0"
    }
  ],
  "samplers": [
    {
      "magFilter": 9729,
      "minFilter": 9987,
      "wrapS": 10497,
      "wrapT": 10497
    }
  ],
  "scene": 0,
  "scenes": [
    {
      "name": "Sketchfab_Scene",
      "nodes": [
        0
      ]
    }
  ],
  "textures": [
    {
      "sampler": 0,
      "source": 0
    },
    {
      "sampler": 0,
      "source": 1
    },
    {
      "sampler": 0,
      "source": 2
    }
  ]
}
