{
  "accessors": [
    {
      "bufferView": 2,
      "componentType": 5126,
      "count": 14,
      "max": [
        -0.8476529121398926,
        -9.68924331665039,
        0.8839777112007141
      ],
      "min": [
        -1.8836390972137451,
        -20.325864791870117,
        -0.7994598746299744
      ],
      "type": "VEC3"
    },
    {
      "bufferView": 2,
      "byteOffset": 168,
      "componentType": 5126,
      "count": 14,
      "max": [
        0.438519150018692,
        0.37413302063941956,
        -0.5375913381576538
      ],
      "min": [
        -0.7556586861610413,
        -0.0726860836148262,
        -0.940824031829834
      ],
      "type": "VEC3"
    },
    {
      "bufferView": 1,
      "componentType": 5126,
      "count": 14,
      "max": [
        0.0,
        0.0
      ],
      "min": [
        0.0,
        0.0
      ],
      "type": "VEC2"
    },
    {
      "bufferView": 0,
      "componentType": 5125,
      "count": 15,
      "type": "SCALAR"
    },
    {
      "bufferView": 2,
      "byteOffset": 336,
      "componentType": 5126,
      "count": 960,
      "max": [
        11.620821952819824,
        -2.6694753170013428,
        2.6690568923950195
      ],
      "min": [
        -12.116765975952148,
        -45.897438049316406,
        -12.127531051635742
      ],
      "type": "VEC3"
    },
    {
      "bufferView": 2,
      "byteOffset": 11856,
      "componentType": 5126,
      "count": 960,
      "max": [
        0.9915987253189087,
        0.9984591007232666,
        0.9998111724853516
      ],
      "min": [
        -0.9949684739112854,
        -0.9999409914016724,
        -0.999840497970581
      ],
      "type": "VEC3"
    },
    {
      "bufferView": 1,
      "byteOffset": 112,
      "componentType": 5126,
      "count": 960,
      "max": [
        0.18994140625,
        0.25732421875
      ],
      "min": [
        0.0,
        0.0
      ],
      "type": "VEC2"
    },
    {
      "bufferView": 0,
      "byteOffset": 60,
      "componentType": 5125,
      "count": 3432,
      "type": "SCALAR"
    },
    {
      "bufferView": 2,
      "byteOffset": 23376,
      "componentType": 5126,
      "count": 65532,
      "max": [
        16.06321144104004,
        0.30030596256256104,
        9.19459342956543
      ],
      "min": [
        -12.084282875061035,
        -45.992252349853516,
        -13.465349197387695
      ],
      "type": "VEC3"
    },
    {
      "bufferView": 2,
      "byteOffset": 809760,
      "componentType": 5126,
      "count": 65532,
      "max": [
        0.999976634979248,
        0.9999995827674866,
        0.9999971985816956
      ],
      "min": [
        -0.9999441504478455,
        -0.999946117401123,
        -0.9999949336051941
      ],
      "type": "VEC3"
    },
    {
      "bufferView": 1,
      "byteOffset": 7792,
      "componentType": 5126,
      "count": 65532,
      "max": [
        0.9997529983520508,
        0.8174949884414673
      ],
      "min": [
        0.00019700000120792538,
        0.00037900000461377203
      ],
      "type": "VEC2"
    },
    {
      "bufferView": 0,
      "byteOffset": 13788,
      "componentType": 5125,
      "count": 249606,
      "type": "SCALAR"
    },
    {
      "bufferView": 2,
      "byteOffset": 1596144,
      "componentType": 5126,
      "count": 65534,
      "max": [
        16.02521324157715,
        -0.02638506516814232,
        13.510885238647461
      ],
      "min": [
        -9.307767868041992,
        -45.198795318603516,
        -11.355990409851074
      ],
      "type": "VEC3"
    },
    {
      "bufferView": 2,
      "byteOffset": 2382552,
      "componentType": 5126,
      "count": 65534,
      "max": [
        0.9999813437461853,
        0.9998350143432617,
        0.9999960660934448
      ],
      "min": [
        -0.999987781047821,
        -0.9999451041221619,
        -0.9999937415122986
      ],
      "type": "VEC3"
    },
    {
      "bufferView": 1,
      "byteOffset": 532048,
      "componentType": 5126,
      "count": 65534,
      "max": [
        0.9997000098228455,
        0.8175010085105896
      ],
      "min": [
        0.00019700000120792538,
        0.010214000009000301
      ],
      "type": "VEC2"
    },
    {
      "bufferView": 0,
      "byteOffset": 1012212,
      "componentType": 5125,
      "count": 219321,
      "type": "SCALAR"
    },
    {
      "bufferView": 2,
      "byteOffset": 3168960,
      "componentType": 5126,
      "count": 65532,
      "max": [
        7.699592113494873,
        0.02424662932753563,
        12.48188304901123
      ],
      "min": [
        -10.022193908691406,
        -46.00994873046875,
        -11.937188148498535
      ],
      "type": "VEC3"
    },
    {
      "bufferView": 2,
      "byteOffset": 3955344,
      "componentType": 5126,
      "count": 65532,
      "max": [
        0.9999826550483704,
        0.9998262524604797,
        0.9999971985816956
      ],
      "min": [
        -0.9999961853027344,
        -0.9998470544815063,
        -0.9999949336051941
      ],
      "type": "VEC3"
    },
    {
      "bufferView": 1,
      "byteOffset": 1056320,
      "componentType": 5126,
      "count": 65532,
      "max": [
        0.9997599720954895,
        0.8174960017204285
      ],
      "min": [
        0.00012599999899975955,
        0.006018000189214945
      ],
      "type": "VEC2"
    },
    {
      "bufferView": 0,
      "byteOffset": 1889496,
      "componentType": 5125,
      "count": 185805,
      "type": "SCALAR"
    },
    {
      "bufferView": 2,
      "byteOffset": 4741728,
      "componentType": 5126,
      "count": 4523,
      "max": [
        12.529094696044922,
        -17.51581382751465,
        3.229001760482788
      ],
      "min": [
        -7.395020008087158,
        -35.63729476928711,
        -8.075823783874512
      ],
      "type": "VEC3"
    },
    {
      "bufferView": 2,
      "byteOffset": 4796004,
      "componentType": 5126,
      "count": 4523,
      "max": [
        0.9999549388885498,
        0.9994463920593262,
        0.9999014735221863
      ],
      "min": [
        -0.9993003606796265,
        -0.9891659021377563,
        -0.9999852180480957
      ],
      "type": "VEC3"
    },
    {
      "bufferView": 1,
      "byteOffset": 1580576,
      "componentType": 5126,
      "count": 4523,
      "max": [
        0.9984509944915771,
        0.8176329731941223
      ],
      "min": [
        0.00017100000695791095,
        0.018154000863432884
      ],
      "type": "VEC2"
    },
    {
      "bufferView": 0,
      "byteOffset": 2632716,
      "componentType": 5125,
      "count": 9897,
      "type": "SCALAR"
    },
    {
      "bufferView": 2,
      "byteOffset": 4850280,
      "componentType": 5126,
      "count": 1257,
      "max": [
        5.083451747894287,
        0.30030596256256104,
        5.01723575592041
      ],
      "min": [
        -7.935324668884277,
        -29.40549087524414,
        -8.978995323181152
      ],
      "type": "VEC3"
    },
    {
      "bufferView": 2,
      "byteOffset": 4865364,
      "componentType": 5126,
      "count": 1257,
      "max": [
        0.9956946969032288,
        1.0,
        0.9974762797355652
      ],
      "min": [
        -0.9919112920761108,
        -0.7117912173271179,
        -0.9973383545875549
      ],
      "type": "VEC3"
    },
    {
      "bufferView": 1,
      "byteOffset": 1616760,
      "componentType": 5126,
      "count": 1257,
      "max": [
        0.0,
        0.0
      ],
      "min": [
        0.0,
        0.0
      ],
      "type": "VEC2"
    },
    {
      "bufferView": 0,
      "byteOffset": 2672304,
      "componentType": 5125,
      "count": 6570,
      "type": "SCALAR"
    }
  ],
  "asset": {
    "extras": {
      "author": "MCWB Architects (https://sketchfab.com/mcwb)",
      "license": "CC-BY-4.0 (http://creativecommons.org/licenses/by/4.0/)",
      "source": "https://sketchfab.com/3d-models/spirit-of-life-sculpture-91fd13978c3749f7a77f2c2719ddeb08",
      "title": "Spirit of Life Sculpture"
    },
    "generator": "Sketchfab-12.65.0",
    "version": "2.0"
  },
  "bufferViews": [
    {
      "buffer": 0,
      "byteLength": 2698584,
      "name": "floatBufferViews",
      "target": 34963
    },
    {
      "buffer": 0,
      "byteLength": 1626816,
      "byteOffset": 2698584,
      "byteStride": 8,
      "name": "floatBufferViews",
      "target": 34962
    },
    {
      "buffer": 0,
      "byteLength": 4880448,
      "byteOffset": 4325400,
      "byteStride": 12,
      "name": "floatBufferViews",
      "target": 34962
    }
  ],
  "buffers": [
    {
      "byteLength": 9205848,
      "uri": "scene.bin"
    }
  ],
  "images": [
    {
      "uri": "textures/GeneratedMat1_baseColor.png"
    },
    {
      "uri": "textures/material_0_baseColor.jpeg"
    }
  ],
  "materials": [
    {
      "doubleSided": true,
      "name": "GeneratedMat1",
      "pbrMetallicRoughness": {
        "baseColorTexture": {
          "index": 0
        },
        "metallicFactor": 0.0,
        "roughnessFactor": 0.6
      }
    },
    {
      "doubleSided": true,
      "name": "material_0",
      "pbrMetallicRoughness": {
        "baseColorFactor": [
          0.8382600028559847,
          0.8382600028559847,
          0.8382600028559847,
          1.0
        ],
        "baseColorTexture": {
          "index": 1
        },
        "metallicFactor": 0.0,
        "roughnessFactor": 0.6
      }
    }
  ],
  "meshes": [
    {
      "name": "Object_0",
      "primitives": [
        {
          "attributes": {
            "NORMAL": 1,
            "POSITION": 0,
            "TEXCOORD_0": 2
          },
          "indices": 3,
          "material": 0,
          "mode": 4
        }
      ]
    },
    {
      "name": "Object_1",
      "primitives": [
        {
          "attributes": {
            "NORMAL": 5,
            "POSITION": 4,
            "TEXCOORD_0": 6
          },
          "indices": 7,
          "material": 0,
          "mode": 4
        }
      ]
    },
    {
      "name": "Object_2",
      "primitives": [
        {
          "attributes": {
            "NORMAL": 9,
            "POSITION": 8,
            "TEXCOORD_0": 10
          },
          "indices": 11,
          "material": 1,
          "mode": 4
        }
      ]
    },
    {
      "name": "Object_3",
      "primitives": [
        {
          "attributes": {
            "NORMAL": 13,
            "POSITION": 12,
            "TEXCOORD_0": 14
          },
          "indices": 15,
          "material": 1,
          "mode": 4
        }
      ]
    },
    {
      "name": "Object_4",
      "primitives": [
        {
          "attributes": {
            "NORMAL": 17,
            "POSITION": 16,
            "TEXCOORD_0": 18
          },
          "indices": 19,
          "material": 1,
          "mode": 4
        }
      ]
    },
    {
      "name": "Object_5",
      "primitives": [
        {
          "attributes": {
            "NORMAL": 21,
            "POSITION": 20,
            "TEXCOORD_0": 22
          },
          "indices": 23,
          "material": 1,
          "mode": 4
        }
      ]
    },
    {
      "name": "Object_6",
      "primitives": [
        {
          "attributes": {
            "NORMAL": 25,
            "POSITION": 24,
            "TEXCOORD_0": 26
          },
          "indices": 27,
          "material": 1,
          "mode": 4
        }
      ]
    }
  ],
  "nodes": [
    {
      "children": [
        1
      ],
      "matrix": [
        0.04861279573219579,
        -1.0713121327063785e-17,
        -0.000270994443801513,
        0.0,
        -1.0815459716230635e-17,
        -0.04861355200409889,
        -2.2336945079293973e-17,
        0.0,
        -0.000270994443801513,
        2.239697833689507e-17,
        -0.04861279573219579,
        0.0,
        0.00015742043615318835,
        -22.831901550292972,
        22.888380050659176,
        1.0
      ],
      "name": "Sketchfab_model"
    },
    {
      "children": [
        2,
        3,
        4,
        5,
        6,
        7,
        8
      ],
      "name": "SOL-Fixed.obj.cleaner.materialmerger.gles"
    },
    {
      "mesh": 0,
      "name": "Object_2"
    },
    {
      "mesh": 1,
      "name": "Object_3"
    },
    {
      "mesh": 2,
      "name": "Object_4"
    },
    {
      "mesh": 3,
      "name": "Object_5"
    },
    {
      "mesh": 4,
      "name": "Object_6"
    },
    {
      "mesh": 5,
      "name": "Object_7"
    },
    {
      "mesh": 6,
      "name": "Object_8"
    }
  ],
  "samplers": [
    {
      "magFilter": 9729,
      "minFilter": 9987,
      "wrapS": 10497,
      "wrapT": 10497
    }
  ],
  "scene": 0,
  "scenes": [
    {
      "name": "Sketchfab_Scene",
      "nodes": [
        0
      ]
    }
  ],
  "textures": [
    {
      "sampler": 0,
      "source": 0
    },
    {
      "sampler": 0,
      "source": 1
    }
  ]
}
