{
  "accessors": [
    {
      "bufferView": 2,
      "componentType": 5126,
      "count": 750,
      "max": [
        0.07393372058868408,
        0.022506408393383026,
        0.2032465636730194
      ],
      "min": [
        -0.08311276137828827,
        -0.022506408393383026,
        -0.0002953970688395202
      ],
      "type": "VEC3"
    },
    {
      "bufferView": 2,
      "byteOffset": 9000,
      "componentType": 5126,
      "count": 750,
      "max": [
        1.0,
        1.0,
        1.0
      ],
      "min": [
        -0.9999865889549255,
        -1.0,
        -1.0
      ],
      "type": "VEC3"
    },
    {
      "bufferView": 3,
      "componentType": 5126,
      "count": 750,
      "max": [
        1.0,
        0.9511976838111877,
        1.0,
        1.0
      ],
      "min": [
        -1.0,
        -0.9999786019325256,
        -0.9212940335273743,
        1.0
      ],
      "type": "VEC4"
    },
    {
      "bufferView": 1,
      "componentType": 5126,
      "count": 750,
      "max": [
        0.992789089679718,
        0.8892651200294495
      ],
      "min": [
        0.007210990414023399,
        0.007210990414023399
      ],
      "type": "VEC2"
    },
    {
      "bufferView": 0,
      "componentType": 5125,
      "count": 3708,
      "type": "SCALAR"
    }
  ],
  "asset": {
    "extras": {
      "author": "James.Moore (https://sketchfab.com/James.Moore)",
      "license": "CC-BY-4.0 (http://creativecommons.org/licenses/by/4.0/)",
      "source": "https://sketchfab.com/3d-models/book-28e028e981604aacb25766852aa279ed",
      "title": "Book"
    },
    "generator": "Sketchfab-12.65.0",
    "version": "2.0"
  },
  "bufferViews": [
    {
      "buffer": 0,
      "byteLength": 14832,
      "name": "floatBufferViews",
      "target": 34963
    },
    {
      "buffer": 0,
      "byteLength": 6000,
      "byteOffset": 14832,
      "byteStride": 8,
      "name": "floatBufferViews",
      "target": 34962
    },
    {
      "buffer": 0,
      "byteLength": 18000,
      "byteOffset": 20832,
      "byteStride": 12,
      "name": "floatBufferViews",
      "target": 34962
    },
    {
      "buffer": 0,
      "byteLength": 12000,
      "byteOffset": 38832,
      "byteStride": 16,
      "name": "floatBufferViews",
      "target": 34962
    }
  ],
  "buffers": [
    {
      "byteLength": 50832,
      "uri": "scene.bin"
    }
  ],
  "images": [
    {
      "uri": "textures/BookA_baseColor.png"
    },
    {
      "uri": "textures/BookA_metallicRoughness.png"
    },
    {
      "uri": "textures/BookA_normal.png"
    }
  ],
  "materials": [
    {
      "doubleSided": true,
      "name": "BookA",
      "normalTexture": {
        "index": 2
      },
      "occlusionTexture": {
        "index": 1
      },
      "pbrMetallicRoughness": {
        "baseColorTexture": {
          "index": 0
        },
        "metallicFactor": 0.0,
        "metallicRoughnessTexture": {
          "index": 1
        }
      }
    }
  ],
  "meshes": [
    {
      "name": "BookA_BookA_0",
      "primitives": [
        {
          "attributes": {
            "NORMAL": 1,
            "POSITION": 0,
            "TANGENT": 2,
            "TEXCOORD_0": 3
          },
          "indices": 4,
          "material": 0,
          "mode": 4
        }
      ]
    }
  ],
  "nodes": [
    {
      "children": [
        1
      ],
      "matrix": [
        1.0,
        0.0,
        0.0,
        0.0,
        0.0,
        2.220446049250313e-16,
        -1.0,
        0.0,
        0.0,
        1.0,
        2.220446049250313e-16,
        0.0,
        0.0,
        0.0,
        0.0,
        1.0
      ],
      "name": "Sketchfab_model"
    },
    {
      "children": [
        2
      ],
      "matrix": [
        1.0,
        0.0,
        0.0,
        0.0,
        0.0,
        0.0,
        1.0,
        0.0,
        0.0,
        -1.0,
        0.0,
        0.0,
        0.0,
        0.0,
        0.0,
        1.0
      ],
      "name": "b088d4ad4deb4b2287e9fd41a2470dfb.fbx"
    },
    {
      "children": [
        3
      ],
      "name": "RootNode"
    },
    {
      "children": [
        4
      ],
      "matrix": [
        100.0,
        0.0,
        0.0,
        0.0,
        0.0,
        -1.629206793918314e-05,
        -99.99999999999868,
        0.0,
        0.0,
        99.99999999999868,
        -1.629206793918314e-05,
        0.0,
        0.0,
        0.0,
        0.0,
        1.0
      ],
      "name": "BookA"
    },
    {
      "mesh": 0,
      "name": "BookA_BookA_0"
    }
  ],
  "samplers": [
    {
      "magFilter": 9729,
      "minFilter": 9987,
      "wrapS": 10497,
      "wrapT": 10497
    }
  ],
  "scene": 0,
  "scenes": [
    {
      "name": "Sketchfab_Scene",
      "nodes": [
        0
      ]
    }
  ],
  "textures": [
    {
      "sampler": 0,
      "source": 0
    },
    {
      "sampler": 0,
      "source": 1
    },
    {
      "sampler": 0,
      "source": 2
    }
  ]
}
